<?xml version="1.0" encoding="UTF-8" standalone="no"?>
<!-- Created with Inkscape (http://www.inkscape.org/) -->

<svg
   xmlns:dc="http://purl.org/dc/elements/1.1/"
   xmlns:cc="http://creativecommons.org/ns#"
   xmlns:rdf="http://www.w3.org/1999/02/22-rdf-syntax-ns#"
   xmlns:svg="http://www.w3.org/2000/svg"
   xmlns="http://www.w3.org/2000/svg"
   xmlns:xlink="http://www.w3.org/1999/xlink"
   xmlns:sodipodi="http://sodipodi.sourceforge.net/DTD/sodipodi-0.dtd"
   xmlns:inkscape="http://www.inkscape.org/namespaces/inkscape"
   width="114.74349mm"
   height="114.5016mm"
   viewBox="0 0 406.57143 405.71434"
   id="svg2"
   version="1.1"
   inkscape:version="0.91 r13725"
   sodipodi:docname="icon.svg">
  <defs
     id="defs4">
    <radialGradient
       inkscape:collect="always"
       xlink:href="#a"
       id="radialGradient4183"
       cx="195.59708"
       cy="213.43192"
       r="94.133102"
       gradientTransform="matrix(1.951167,-0.00312375,-0.00242474,1.5186156,-158.71401,19.783376)"
       fx="195.59708"
       fy="213.43192"
       gradientUnits="userSpaceOnUse" />
    <radialGradient
       id="a"
       cx="0.33704001"
       cy="0.28358001"
       r="0.38183999">
      <stop
         stop-color="#ff0"
         offset="0"
         id="stop7" />
      <stop
         stop-color="#ffe300"
         offset="1"
         id="stop9" />
    </radialGradient>
    <radialGradient
       inkscape:collect="always"
       xlink:href="#a"
       id="radialGradient4185"
       cx="281.43649"
       cy="390.50739"
       r="94.133102"
       gradientTransform="matrix(1.951167,-0.00312375,-0.00242474,1.5186156,-213.38596,39.664942)"
       fx="281.43649"
       fy="390.50739"
       gradientUnits="userSpaceOnUse" />
    <radialGradient
       id="radialGradient4202"
       cx="0.33704001"
       cy="0.28358001"
       r="0.38183999">
      <stop
         stop-color="#ff0"
         offset="0"
         id="stop4204" />
      <stop
         stop-color="#ffe300"
         offset="1"
         id="stop4206" />
    </radialGradient>
    <radialGradient
       inkscape:collect="always"
       xlink:href="#a"
       id="radialGradient4187"
       cx="111.39375"
       cy="400.7226"
       r="94.133102"
       gradientTransform="matrix(1.9497103,0,0,1.5197463,-81.517965,-13.510605)"
       fx="111.39375"
       fy="400.7226"
       gradientUnits="userSpaceOnUse" />
    <radialGradient
       id="radialGradient4209"
       cx="0.33704001"
       cy="0.28358001"
       r="0.38183999">
      <stop
         stop-color="#ff0"
         offset="0"
         id="stop4211" />
      <stop
         stop-color="#ffe300"
         offset="1"
         id="stop4213" />
    </radialGradient>
  </defs>
  <sodipodi:namedview
     id="base"
     pagecolor="#ffffff"
     bordercolor="#666666"
     borderopacity="1.0"
     inkscape:pageopacity="0.0"
     inkscape:pageshadow="2"
     inkscape:zoom="0.7"
     inkscape:cx="186.73026"
     inkscape:cy="302.94467"
     inkscape:document-units="px"
     inkscape:current-layer="layer1"
     showgrid="false"
     fit-margin-top="0"
     fit-margin-left="0"
     fit-margin-right="0"
     fit-margin-bottom="0"
     inkscape:window-width="957"
     inkscape:window-height="1027"
     inkscape:window-x="960"
     inkscape:window-y="0"
     inkscape:window-maximized="0" />
  <metadata
     id="metadata7">
    <rdf:RDF>
      <cc:Work
         rdf:about="">
        <dc:format>image/svg+xml</dc:format>
        <dc:type
           rdf:resource="http://purl.org/dc/dcmitype/StillImage" />
        <dc:title></dc:title>
      </cc:Work>
    </rdf:RDF>
  </metadata>
  <g
     inkscape:label="Layer 1"
     inkscape:groupmode="layer"
     id="layer1"
     transform="translate(-168.5714,-332.3622)">
    <g
       id="g4257">
      <circle
         r="197.14287"
         cy="540.93365"
         cx="377.99997"
         id="path4136-3"
         style="color:#000000;clip-rule:nonzero;display:inline;overflow:visible;visibility:visible;opacity:1;isolation:auto;mix-blend-mode:normal;color-interpolation:sRGB;color-interpolation-filters:linearRGB;solid-color:#000000;solid-opacity:1;fill:#d8d8d8;fill-opacity:1;fill-rule:nonzero;stroke:none;stroke-width:1;stroke-linecap:round;stroke-linejoin:miter;stroke-miterlimit:10;stroke-dasharray:none;stroke-dashoffset:0;stroke-opacity:1;color-rendering:auto;image-rendering:auto;shape-rendering:auto;text-rendering:auto;enable-background:accumulate" />
      <circle
         r="197.14287"
         cy="529.50507"
         cx="365.71426"
         id="path4136"
         style="color:#000000;clip-rule:nonzero;display:inline;overflow:visible;visibility:visible;opacity:1;isolation:auto;mix-blend-mode:normal;color-interpolation:sRGB;color-interpolation-filters:linearRGB;solid-color:#000000;solid-opacity:1;fill:#ffffff;fill-opacity:1;fill-rule:nonzero;stroke:none;stroke-width:1;stroke-linecap:round;stroke-linejoin:miter;stroke-miterlimit:10;stroke-dasharray:none;stroke-dashoffset:0;stroke-opacity:1;color-rendering:auto;image-rendering:auto;shape-rendering:auto;text-rendering:auto;enable-background:accumulate" />
      <circle
         r="174.28572"
         cy="529.50507"
         cx="365.71426"
         id="path4136-6"
         style="color:#000000;clip-rule:nonzero;display:inline;overflow:visible;visibility:visible;opacity:1;isolation:auto;mix-blend-mode:normal;color-interpolation:sRGB;color-interpolation-filters:linearRGB;solid-color:#000000;solid-opacity:1;fill:#f8ef56;fill-opacity:1;fill-rule:nonzero;stroke:none;stroke-width:1;stroke-linecap:round;stroke-linejoin:miter;stroke-miterlimit:10;stroke-dasharray:none;stroke-dashoffset:0;stroke-opacity:1;color-rendering:auto;image-rendering:auto;shape-rendering:auto;text-rendering:auto;enable-background:accumulate" />
    </g>
    <g
       id="g11"
       transform="matrix(0.58215125,0,0,0.57972628,216.02719,340.19467)"
       style="fill-rule:evenodd">
      <g
         transform="matrix(0.96592583,-0.25881905,0.25881905,0.96592583,-52.636882,78.04319)"
         id="g13">
        <path
           transform="matrix(0.98480775,-0.17364818,0.17364818,0.98480775,-36.751992,50.042815)"
           d="m 158.23,166.49 c 94.643,-84.304 240.02,-1.1993 238.07,86.115 15.611,15.556 -1.9514,32.618 -11.708,37.134 -83.91,106.38 -256.61,19.069 -246.36,-68.748 -13.043,-38.56 -1.4636,-49.985 20.002,-54.501 z"
           id="path15"
           style="fill:url(#radialGradient4183);stroke:#000000;stroke-width:10.32813358;stroke-linejoin:round;stroke-miterlimit:4;stroke-dasharray:none"
           inkscape:connector-curvature="0" />
        <g
           id="g17"
           style="stroke-width:1.25">
          <path
             transform="matrix(0.98480775,-0.17364818,0.17364818,0.98480775,-44.023027,52.234497)"
             d="m 151.35,238.53 c 12.57,-12.93 14.049,87.469 197.43,50.2 -3.6972,-3.803 -23.662,-90.511 47.324,-61.608 27.729,8.7469 -58.786,-5.8946 -28.099,54.763 4.7584,7.9686 3.3275,7.9863 16.268,11.409 -78.381,86.708 -231.44,19.776 -232.92,-54.763 z"
             id="path19"
             inkscape:connector-curvature="0"
             style="fill-opacity:0.13300003" />
          <g
             id="g21"
             style="fill:#ffffff;fill-opacity:0.7">
            <path
               transform="matrix(0.98480775,-0.17364818,0.17364818,0.98480775,-25.705578,47.023895)"
               d="m 146.45,172.23 c 33.298,-39.759 145.29,-68.062 218.88,28.903 -25.141,28.142 -96.127,-93.554 -218.88,-28.903 z"
               id="path23"
               inkscape:connector-curvature="0" />
            <path
               transform="matrix(0.98480775,-0.17364818,0.17364818,0.98480775,-36.89099,70.634059)"
               d="m 398.93,235.9 c 8.4688,10.648 0.73944,22.818 -5.1761,21.297 -46.585,-12.93 -21.444,-25.86 5.1761,-21.297 z"
               id="path25"
               inkscape:connector-curvature="0" />
          </g>
        </g>
      </g>
      <g
         transform="matrix(0.90630779,-0.42261826,0.42261826,0.90630779,-132.5114,192.61972)"
         id="g27">
        <path
           d="m 255.66,322.5 c 94.643,-84.304 240.02,-1.1993 238.07,86.115 15.611,15.556 -1.9514,32.618 -11.708,37.134 -83.91,106.38 -256.61,19.069 -246.36,-68.748 -13.043,-38.56 -1.4636,-49.985 20.002,-54.501 z"
           id="path29"
           style="fill:url(#radialGradient4185);stroke:#000000;stroke-width:10.32813358;stroke-linejoin:round;stroke-miterlimit:4;stroke-dasharray:none"
           inkscape:connector-curvature="0" />
        <g
           id="g31"
           style="stroke-width:1.25">
          <path
             d="m 241.24,395.44 c 12.57,-12.93 14.049,87.469 197.43,50.2 -3.6972,-3.803 -23.662,-90.511 47.324,-61.608 27.729,8.7469 -58.786,-5.8946 -28.099,54.763 4.7584,7.9686 3.3275,7.9863 16.268,11.409 -78.381,86.708 -231.44,19.776 -232.92,-54.763 z"
             id="path33"
             inkscape:connector-curvature="0"
             style="fill-opacity:0.13300003" />
          <g
             id="g35"
             style="fill:#ffffff;fill-opacity:0.7">
            <path
               d="m 255.29,327.19 c 33.298,-39.759 145.29,-68.062 218.88,28.903 -25.141,28.142 -96.127,-93.554 -218.88,-28.903 z"
               id="path37"
               inkscape:connector-curvature="0" />
            <path
               d="m 492.65,412.17 c 8.4687,10.648 0.73944,22.818 -5.1761,21.297 -46.585,-12.93 -21.444,-25.86 5.1761,-21.297 z"
               id="path39"
               inkscape:connector-curvature="0" />
          </g>
        </g>
      </g>
      <path
         d="m 62.657,331.5 c 94.643,-84.304 240.02,-1.1993 238.07,86.115 15.611,15.556 -1.9514,32.618 -11.708,37.134 -83.91,106.38 -256.61,19.069 -246.36,-68.748 -13.043,-38.56 -1.4635,-49.985 20.002,-54.501 z"
         id="path41"
         style="fill:url(#radialGradient4187);stroke:#000000;stroke-width:10.32813358;stroke-linejoin:round;stroke-miterlimit:4;stroke-dasharray:none"
         inkscape:connector-curvature="0" />
      <g
         id="g43"
         style="stroke-width:1.25">
        <path
           d="m 48.237,404.44 c 12.57,-12.93 14.049,87.469 197.43,50.2 -3.6972,-3.803 -23.662,-90.511 47.324,-61.608 27.729,8.7469 -58.786,-5.8946 -28.099,54.763 4.7584,7.9686 3.3275,7.9863 16.268,11.409 C 202.779,545.912 49.72,478.98 48.24,404.441 Z"
           id="path45"
           inkscape:connector-curvature="0"
           style="fill-opacity:0.13300003" />
        <g
           id="g47"
           style="fill:#ffffff;fill-opacity:0.7">
          <path
             d="m 62.286,336.19 c 33.298,-39.759 145.29,-68.062 218.88,28.903 -25.141,28.142 -96.127,-93.554 -218.88,-28.903 z"
             id="path49"
             inkscape:connector-curvature="0" />
          <path
             d="m 299.65,421.17 c 8.4687,10.648 0.73938,22.818 -5.1761,21.297 -46.585,-12.93 -21.444,-25.86 5.1761,-21.297 z"
             id="path51"
             inkscape:connector-curvature="0" />
        </g>
      </g>
    </g>
  </g>
</svg>
